<?xml version="1.0" encoding="utf-8"?>
<!-- Generator: Adobe Illustrator 29.8.3, SVG Export Plug-In . SVG Version: 9.03 Build 0)  -->
<svg version="1.1" id="Layer_1" xmlns="http://www.w3.org/2000/svg" xmlns:xlink="http://www.w3.org/1999/xlink" x="0px" y="0px"
	 viewBox="0 0 462 304" style="enable-background:new 0 0 462 304;" xml:space="preserve">
<style type="text/css">
	.st0{fill:#1E1E2E;stroke:#1E1E2E;stroke-miterlimit:10;}
	.st1{fill:none;stroke:#1E1E2E;stroke-width:3.7082;stroke-linecap:round;stroke-miterlimit:10;}
	.st2{fill:#1E1E2E;stroke:#1E1E2E;stroke-width:4.9899;stroke-linecap:round;stroke-miterlimit:10;}
	.st3{fill:#1E1E2E;}
	.st4{fill:none;stroke:#1E1E2E;stroke-width:3;stroke-miterlimit:10;}
	.st5{fill:none;stroke:#000000;stroke-width:3;stroke-miterlimit:10;}
</style>
<path class="st0" d="M156.51,270.09l38.71-0.34l18.81,0.04c0,0,3.36,1.49,6.04,6.91c0.99,2,2.83,5.57,2.86,7.43
	c0.04,2.03-0.1,1.31-0.2,1.66c-0.07,0.26-0.25,1-0.8,1.81c-0.26,0.38-0.83,1.01-1.61,1.51c-0.66,0.42-1.54,0.72-1.77,1.07
	c-0.43,0.66-0.32,1.92-0.5,2.55c-0.29,1.01-1.26,1.96-1.5,2.2c-0.49,0.5-1.51,1.21-2.58,1.54c-1.27,0.4-2.62,0.37-3.23,0.28
	c-0.83-0.12-1.82-0.34-2.42-0.36c-0.25-0.01-0.4,0.71-0.92,0.94c-0.49,0.23-1.11,0.85-1.74,1.02c-0.97,0.26-1.12,0.42-1.69,0.39
	c-0.45-0.02-1.07,0.09-1.66-0.11c-0.27-0.09-1.38-0.51-2.29-1.25c-1.02-0.83-1.87-1.99-2.32-2.27c-0.43-0.27-2.09-2.21-3.74-4.51
	c-1.25-1.74-2.43-3.73-3.37-5.07c-1.39-1.96-2.62-4.89-4.82-6.75c-3.96-3.34-11.04-6.14-14.63-7.3
	C165.41,269.61,156.51,270.09,156.51,270.09z"/>
<path class="st0" d="M291.2,271.49c-3.58,1.17-10.67,3.96-14.63,7.3c-2.2,1.86-3.44,4.79-4.82,6.75c-0.95,1.34-2.13,3.33-3.38,5.07
	c-1.65,2.3-3.31,4.24-3.74,4.51c-0.45,0.28-1.3,1.45-2.32,2.27c-0.92,0.74-2.02,1.16-2.29,1.25c-0.59,0.2-1.21,0.09-1.66,0.11
	c-0.57,0.02-0.73-0.13-1.69-0.39c-0.63-0.17-1.24-0.79-1.74-1.02c-0.52-0.24-0.67-0.95-0.92-0.94c-0.6,0.03-1.59,0.24-2.42,0.36
	c-0.61,0.09-1.96,0.12-3.23-0.28c-1.07-0.33-2.09-1.04-2.58-1.54c-0.24-0.25-1.21-1.19-1.5-2.2c-0.18-0.63-0.07-1.89-0.5-2.55
	c-0.23-0.35-1.11-0.65-1.77-1.07c-0.78-0.5-1.35-1.12-1.61-1.51c-0.55-0.81-0.73-1.55-0.8-1.81c-0.1-0.35-0.24,0.37-0.2-1.66
	c0.04-1.86,1.87-5.43,2.86-7.43c2.69-5.42,6.04-6.91,6.04-6.91l16.01-0.1l40.62-0.02C304.93,269.68,296.93,269.62,291.2,271.49z"/>
<path d="M354.32,271.27H109.5H354.32z"/>
<path class="st1" d="M397.94,269.68H64.06"/>
<path d="M117.08,215.69l16.43,6.3L117.08,215.69z"/>
<path class="st2" d="M117.08,215.69l16.43,6.3"/>
<path d="M113.21,230.41l18.76,1.29L113.21,230.41z"/>
<path class="st2" d="M113.21,230.41l18.76,1.29"/>
<path d="M117.09,244.31l13.59-2.91L117.09,244.31z"/>
<path class="st2" d="M117.09,244.31l13.59-2.91"/>
<path d="M345.11,216.44l-17.21,6.8L345.11,216.44z"/>
<path class="st2" d="M345.11,216.44l-17.21,6.8"/>
<path d="M350.63,230.47l-21.67,1.49L350.63,230.47z"/>
<path class="st2" d="M350.63,230.47l-21.67,1.49"/>
<path d="M346.81,244.49l-16.15-3.82L346.81,244.49z"/>
<path class="st2" d="M346.81,244.49l-16.15-3.82"/>
<path class="st3" d="M306.5,133.2c1.22-0.16,2.02,0.08,3.16,0.1c0.54,0.01,1.87,0.28,3.32,1.09c1.35,0.75,2.84,2.04,2.97,2.16
	c1.24,1.08,2.1,2.96,2.37,3.44c0.69,1.23,0.87,2.88,1.22,4.48c0.62,2.8,0.96,6.15,1.58,9.85c1.18,7.1,2.3,15.74,3.49,23.91
	c0.51,3.54,0.97,6.85,1.34,10.22c0.2,1.84,0.22,3.69,0.56,5.6c0.43,2.43,2.97,30.17,3.28,32.28c0.65,4.46,1.32,8.56,1.57,10.18
	c0.69,4.52,1.16,9.62,1.35,10.75c0.52,3.04,1.07,7.26,1.84,12.4c0.7,4.66,0.88,10.42,0.88,10.42l-208.84,0.38
	c0,0,0.17-4.59,0.84-9.6c0.72-5.34,1.59-11.6,2.09-14.63c0.19-1.17,1.41-9.04,2.85-19.66c0.59-4.38,2.19-20.37,3.39-31.76
	c0.59-5.59,1.19-10.3,1.31-11.54c0.86-9.09,2.09-16.52,2.36-19.55c0.52-5.88,1.71-12.46,2.83-18.62c0.29-1.62,0.91-3.01,1.25-4.4
	c0.12-0.5,1.26-2.38,1.32-2.61c0.28-0.99,2.37-2.31,2.63-3.03c0.14-0.38,3.72-2.61,10.43-1.6c1.18,0.18,2.59,0.42,4.04,0.96
	c0.36,0.13,4.12,1.3,8.23,3.63c6.6,3.75,14.67,9.35,15.24,9.75c1.63,1.14,5.97,4.7,8.75,7.13c2.22,1.94,3.07,2.93,3.36,3.02
	c0.71,0.22,0.69,0.89,0.88,0.77c0.01,0.01,0.37,0.48,1,0.31c1.32-0.36,3.98-0.45,7.17-0.71c3.81-0.31,8.53-0.66,13.18-0.91
	c3.14-0.17,6.27-0.42,9.03-0.42c1.91,0,5.74-0.06,9.5,0.1c4.61,0.2,9.21,0.65,11.19,0.78c5.33,0.37,9.52,0.97,10.14,1
	c0.92,0.05,2.11,0.21,2.88,0.28c0.4,0.04,0.86-0.05,0.93-0.1c0.25-0.18,0.34-0.3,0.61-0.53c0.61-0.53,1.2-1.11,1.47-1.35
	c0.7-0.63,2.62-2.3,4.87-4.21c1.93-1.63,4.12-3.46,5.73-4.67c3.2-2.4,7.76-5.25,9.07-6.1c2.73-1.76,5.07-3.05,6.21-3.69
	c1.98-1.1,4.18-2.1,5.07-2.51c0.86-0.4,2.67-1.28,4.94-1.88C303.59,133.54,306.31,133.23,306.5,133.2z M308.97,224.49
	c-4.09,0-7.41,3.32-7.41,7.41s3.32,7.41,7.41,7.41s7.41-3.32,7.41-7.41S313.06,224.49,308.97,224.49z M154.77,224.19
	c-4.09,0-7.41,3.32-7.41,7.41s3.32,7.41,7.41,7.41s7.41-3.32,7.41-7.41C162.18,227.5,158.86,224.19,154.77,224.19z M196.05,192.22
	c-0.68,0-2.03,0.04-2.98,0.13l-0.38,0.04c-1.88,0.23-5.53,1.05-8.7,2.7l-0.63,0.34c-3.23,1.84-5.86,4.45-6.96,5.66l-0.38,0.42
	c-0.62,0.73-1.93,2.33-2.74,4.36l-0.15,0.41c-0.83,2.36-1.22,5.2-1.21,6.76l0.01,0.62c0.12,3.08,0.96,5.9,1.35,6.88l0.14,0.35
	c0.74,1.76,1.75,3.47,2.36,4.17l0.37,0.41c2,2.08,5.81,4.65,10.68,5.71l1.17,0.25c1.31,0.27,3.04,0.55,4.91,0.53l0.74-0.02
	c1.74-0.06,3.58-0.28,5.32-0.73l0.45-0.12c1.15-0.33,2.94-0.98,4.73-1.97l0.35-0.2c1.74-1.02,3.45-2.35,3.68-2.51l0.25-0.18
	c0.58-0.46,1.16-1.17,1.69-2.02c0.62-0.97,1.2-2.14,1.7-3.35c1.01-2.42,1.73-5.07,1.83-6.77l0.02-0.4c0.05-1.75-0.16-3.85-0.42-5.58
	l-0.12-0.77c-0.76-4.61-3.08-7.83-5-9.8l-0.38-0.38C203.77,193.3,198.24,192.22,196.05,192.22z M267.23,192.17
	c-2.13,0-7.38,1.01-11.34,4.58l-0.38,0.35c-1.92,1.86-4.41,5.05-5.3,9.72l-0.08,0.46c-0.32,1.96-0.64,4.67-0.52,6.75l0.03,0.33
	c0.16,1.7,0.86,4.17,1.8,6.44c0.51,1.21,1.09,2.38,1.7,3.35s1.27,1.76,1.94,2.2l0.47,0.35c0.73,0.54,2.16,1.58,3.56,2.36l0.38,0.21
	c1.91,1.01,3.78,1.62,4.8,1.89l0.38,0.09c1.89,0.45,3.86,0.63,5.69,0.66h0.47c2.31-0.03,4.35-0.51,5.61-0.78l0.48-0.11
	c4.95-1.19,8.76-3.93,10.57-6.01l0.13-0.15c0.66-0.83,1.68-2.61,2.38-4.37l0.18-0.49c0.46-1.35,1.17-4.11,1.19-7.01v-0.31
	c-0.04-1.5-0.38-3.89-1.06-6l-0.15-0.45c-0.68-1.95-1.88-3.54-2.61-4.43l-0.28-0.34c-0.72-0.84-3.46-3.79-6.99-5.88l-0.34-0.2
	c-3.1-1.76-6.83-2.67-8.93-2.98l-0.4-0.05C269.65,192.23,268.01,192.17,267.23,192.17z M232.09,208.21
	c-0.35,0.01-0.98-0.01-1.65,0.07l-0.29,0.04c-0.77,0.12-1.54,0.35-2.03,0.53l-0.19,0.08c-0.49,0.2-0.93,0.48-1.26,0.72
	c-0.25,0.18-0.45,0.35-0.57,0.47l-0.1,0.1c-0.06,0.07-0.11,0.12-0.19,0.19c-0.05,0.05-0.11,0.11-0.16,0.19l-0.05,0.08
	c-0.03,0.06-0.08,0.16-0.12,0.25l-0.1,0.25c-0.06,0.17-0.06,0.32-0.04,0.42c0.01,0.05,0.02,0.1,0.04,0.13
	c0.01,0.02,0.01,0.03,0.02,0.04c0,0.01,0.01,0.01,0.01,0.01s0,0,0,0.01l0,0l0,0l0.06,0.1h0.12h0.03c0.02,0,0.05,0,0.08,0
	c0.06,0,0.15,0,0.24-0.01l0.3-0.01c0.39-0.01,1.05-0.01,1.67-0.01c0.07,0,0.13,0,0.19,0h0.01c0.2,0.06,0.45,0.15,0.66,0.28
	l0.14,0.09c0.14,0.1,0.26,0.22,0.38,0.34c0.08,0.08,0.15,0.16,0.22,0.24s0.14,0.16,0.21,0.22l0.19,0.22
	c0.11,0.14,0.25,0.32,0.37,0.51l0.23,0.39c0.07,0.13,0.13,0.25,0.19,0.36c0.05,0.11,0.1,0.2,0.13,0.27c0,0,0,0.01,0.01,0.01v4.99
	c-0.1,0.1-0.18,0.21-0.24,0.34l-0.01,0.02c-0.01,0.03-0.04,0.08-0.08,0.14c-0.07,0.12-0.18,0.3-0.34,0.5
	c-0.27,0.35-0.65,0.73-1.14,1.01l-0.22,0.11c-0.18,0.08-0.67,0.2-1.35,0.22c-0.57,0.02-1.16-0.04-1.66-0.18l-0.21-0.06
	c-0.45-0.15-1.21-0.54-1.62-1.1l-0.08-0.11c-0.18-0.29-0.28-0.72-0.32-1.16c-0.02-0.21-0.02-0.39-0.02-0.51c0-0.06,0-0.11,0.01-0.14
	v-0.03c0.06-0.62-0.4-1.18-1.02-1.24c-0.62-0.06-1.18,0.4-1.24,1.02l1.18,0.11h-0.05c-1.06-0.1-1.12-0.11-1.13-0.11l0,0v0.01
	c0,0.01,0,0.01,0,0.02c0,0.02,0,0.04-0.01,0.07c0,0.06-0.01,0.14-0.01,0.23c0,0.19,0,0.45,0.02,0.76c0.05,0.58,0.19,1.43,0.65,2.16
	l0.16,0.24c0.82,1.14,2.14,1.73,2.73,1.93l0.33,0.1c0.78,0.22,1.61,0.28,2.34,0.26c0.81-0.03,1.65-0.16,2.23-0.43l0.19-0.09
	c0.86-0.44,1.49-1.06,1.92-1.58c0.39,0.54,0.93,1.11,1.69,1.47l0.21,0.09c0.52,0.21,1.19,0.36,1.9,0.43
	c0.82,0.08,1.78,0.06,2.71-0.19l0.3-0.09c0.7-0.23,1.32-0.59,1.82-0.95c0.54-0.39,1.02-0.85,1.28-1.24l0.09-0.15
	c0.44-0.75,0.6-1.57,0.65-2.16c0.03-0.33,0.03-0.61,0.03-0.81c0-0.1-0.01-0.19-0.01-0.25c0-0.03,0-0.06,0-0.07c0-0.01,0-0.02,0-0.02
	v-0.01l0,0l0,0l-1.08,0.11l1.08-0.11c-0.06-0.62-0.62-1.08-1.24-1.02c-0.62,0.06-1.08,0.62-1.02,1.24l0,0c0,0.01,0,0.02,0,0.03
	c0,0.03,0,0.08,0.01,0.15c0,0.14,0,0.33-0.02,0.55c-0.04,0.41-0.13,0.82-0.3,1.14l-0.08,0.13c-0.05,0.07-0.29,0.34-0.71,0.65
	c-0.36,0.26-0.77,0.49-1.19,0.63l-0.18,0.05c-0.6,0.16-1.28,0.19-1.91,0.12c-0.48-0.05-0.87-0.14-1.14-0.23l-0.22-0.09
	c-0.42-0.2-0.77-0.62-1.05-1.1c-0.13-0.23-0.22-0.44-0.28-0.59c-0.03-0.08-0.05-0.14-0.07-0.17c-0.01-0.02-0.01-0.03-0.01-0.04l0,0
	l0,0c-0.01-0.02-0.01-0.03-0.02-0.05v-4.85l0.01-0.02l0,0l0,0l0,0c0,0,0-0.01,0.01-0.02c0.01-0.02,0.02-0.04,0.03-0.07
	c0.03-0.06,0.07-0.15,0.12-0.25c0.1-0.21,0.24-0.48,0.4-0.73l0.16-0.24c0.17-0.22,0.35-0.41,0.5-0.6l0.16-0.19
	c0.18-0.2,0.42-0.44,0.69-0.61l0.15-0.09c0.15-0.09,0.3-0.16,0.43-0.22h0.01c0.25,0,0.57,0,0.88,0l0.72,0.01
	c0.23,0,0.45,0,0.62-0.01l0.3-0.01l0.08-0.02c0.03-0.01,0.05-0.03,0.07-0.05c0.04-0.04,0.06-0.09,0.07-0.12
	c0.02-0.05,0.01-0.11,0.01-0.13c0-0.06-0.01-0.08,0-0.1l0.01-0.08c0-0.14-0.03-0.3-0.09-0.45l-0.08-0.18
	c-0.16-0.3-0.44-0.61-0.67-0.84l-0.22-0.2c-0.19-0.16-0.71-0.54-1.34-0.83l-0.28-0.12c-0.54-0.21-1.14-0.31-1.54-0.36l-0.33-0.04
	c-0.27-0.04-0.9-0.14-1.6-0.15h-0.28L232.09,208.21L232.09,208.21z M158.08,145.44c-0.7-0.27-2.36-0.94-3.65-0.72
	c-0.3,0.05-0.99,0.26-1.64,0.66c-0.52,0.32-1.01,0.76-1.26,1.34c-0.09,0.2-0.46,0.77-0.65,1.45c-0.14,0.51-0.5,1.9-0.76,3.44
	c-0.19,1.12-0.47,3.66-0.76,6.11c-0.39,3.26-0.8,6.75-1.06,10.27c-0.02,0.21-0.3,2.88-0.52,6.63c-0.11,1.89-0.13,4.05-0.24,6.31
	c-0.09,1.91-0.29,3.87-0.37,5.78c-0.11,2.43-0.3,4.77-0.36,6.76c-0.05,1.41-0.07,2.65-0.07,3.64c-0.01,1.26,0,2.09-0.02,2.31
	c-0.11,1.45,0.33,2.05,1.21,0.93c3.25-4.14,11.36-14.28,15.96-18.47c4.66-4.24,14.14-9.88,16.73-11.43
	c0.44-0.26,0.58-0.98,0.09-1.39c-0.26-0.22-4.75-6.17-9.05-11.21c-2.88-3.37-5.85-6.21-6.78-7.09
	C161.82,147.86,158.89,145.75,158.08,145.44z M306.49,142.28c-1.29-0.18-2.93,0.54-3.63,0.83c-0.8,0.33-3.66,2.53-6.63,5.51
	c-0.9,0.91-3.79,3.84-6.56,7.29c-4.15,5.16-8.46,11.25-8.71,11.47c-0.48,0.43-0.32,1.14,0.13,1.39c2.64,1.47,12.29,6.83,17.07,10.92
	c4.73,4.05,13.13,13.94,16.5,17.98c0.91,1.09,1.33,0.48,1.18-0.96c-0.02-0.21-0.04-1.04-0.09-2.31c-0.04-0.98-0.09-2.22-0.18-3.63
	c-0.13-1.99-0.38-4.32-0.57-6.75c-0.14-1.91-0.4-3.87-0.55-5.77c-0.18-2.25-0.26-4.41-0.43-6.3c-0.33-3.74-0.69-6.4-0.72-6.61
	c-0.37-3.5-0.88-6.98-1.36-10.23c-0.36-2.44-0.72-4.97-0.94-6.09c-0.31-1.53-0.7-2.9-0.86-3.41c-0.21-0.67-0.6-1.23-0.69-1.43
	c-0.26-0.57-0.77-0.99-1.3-1.3C307.48,142.52,306.79,142.33,306.49,142.28z"/>
<path class="st0" d="M196.16,200.25c1.04-0.01,2.41,0.05,3.91,0.79l0.24,0.13c0.57,0.32,1.17,0.77,1.69,1.2
	c0.59,0.49,1.1,0.98,1.33,1.25l0.24,0.29c0.58,0.75,1.35,2.03,1.67,2.62l0.11,0.21c1.08,2.16,0.94,4.33,0.94,5.99
	c0,0.85,0.13,2.7-0.59,4.69l-0.16,0.4c-0.47,1.12-1.21,2.26-1.9,3.18c-0.52,0.69-1.02,1.27-1.37,1.64l-0.29,0.3
	c-0.99,0.92-2.21,1.58-3.33,2.02c-1.12,0.43-2.17,0.64-2.81,0.64c-0.03,0-0.67-0.04-1.52-0.18c-0.75-0.13-1.68-0.33-2.51-0.67
	l-0.35-0.15c-0.71-0.33-2.22-1.2-3.31-2.58l-0.21-0.28c-0.87-1.2-1.41-2.72-1.71-3.7l-0.23-0.78c-0.7-2.32-0.31-5-0.31-5.53
	c0-1.18,0.22-3.74,1.51-6.01l0.22-0.37c0.55-0.86,1.26-1.66,1.93-2.3c0.77-0.73,1.5-1.28,1.9-1.49l0.38-0.19
	c0.97-0.46,2.5-1.04,4.13-1.08L196.16,200.25z M199.91,205.13c-0.21,0.02-0.44,0.12-0.66,0.27c-0.22,0.15-0.46,0.35-0.68,0.6
	c-0.38,0.43-0.73,0.99-0.88,1.62l-0.05,0.27c-0.06,0.4-0.04,1,0.08,1.61c0.11,0.6,0.33,1.24,0.68,1.7l0.13,0.15
	c0.31,0.33,0.7,0.52,1.05,0.61c0.39,0.11,0.74,0.12,0.9,0.1l0.11-0.02c0.26-0.06,0.57-0.23,0.87-0.45c0.35-0.26,0.7-0.62,0.93-1.03
	l0.09-0.17c0.35-0.74,0.36-1.57,0.34-2.01l-0.01-0.18c-0.08-0.87-0.45-1.66-0.98-2.23c-0.49-0.52-1.13-0.87-1.79-0.86L199.91,205.13
	z"/>
<path class="st0" d="M264.16,200.92c1.59-0.69,3.01-0.65,4.02-0.63l0.35,0.02c1.72,0.12,3.31,0.8,4.16,1.25l0.17,0.09
	c0.42,0.26,1.06,0.76,1.73,1.39c0.77,0.73,1.59,1.67,2.16,2.67l0.23,0.43c1.08,2.15,1.28,4.47,1.28,5.58c0,0.5,0.34,2.88-0.2,5.09
	l-0.12,0.44c-0.2,0.68-0.72,2.62-1.74,4.18l-0.21,0.31c-0.97,1.35-2.37,2.25-3.21,2.7l-0.32,0.16c-0.92,0.43-2.01,0.68-2.86,0.82
	c-0.85,0.14-1.49,0.18-1.51,0.18c-0.65,0-1.69-0.21-2.82-0.64c-1.05-0.41-2.19-1.01-3.14-1.85l-0.19-0.17
	c-0.32-0.3-0.97-1.02-1.66-1.94c-0.6-0.81-1.24-1.78-1.71-2.76l-0.19-0.42c-0.9-2.13-0.75-4.18-0.75-5.08
	c0-1.71-0.15-3.96,1.05-6.19l0.16-0.29c0.43-0.76,1.23-2.03,1.75-2.61l0.23-0.24c0.27-0.27,0.66-0.64,1.11-1.01
	c0.59-0.49,1.29-1.01,1.93-1.32L264.16,200.92z M263.98,204.92c-0.7-0.06-1.4,0.29-1.92,0.85c-0.49,0.53-0.86,1.26-0.96,2.06
	l-0.02,0.16c-0.03,0.39-0.08,1.47,0.41,2.36l0.09,0.15c0.23,0.35,0.53,0.65,0.84,0.88c0.34,0.25,0.71,0.44,0.98,0.47l0.15,0.01
	c0.19,0,0.46-0.03,0.75-0.11c0.39-0.11,0.85-0.34,1.18-0.77l0.13-0.18c0.28-0.44,0.45-0.99,0.56-1.52c0.1-0.53,0.13-1.06,0.1-1.45
	l-0.02-0.16c-0.11-0.74-0.5-1.41-0.93-1.9c-0.22-0.24-0.45-0.45-0.68-0.6c-0.19-0.13-0.39-0.22-0.58-0.26L263.98,204.92z"/>
<g>
	<g>
		<path class="st0" d="M340.37,174.95c-4.19-1.46-7.22-3.93-9.11-7.41c-1.89-3.48-2.15-7.18-0.78-11.1
			c1.36-3.92,3.86-6.67,7.48-8.27c3.62-1.6,7.55-1.66,11.79-0.18c4.24,1.47,7.3,3.97,9.18,7.48s2.13,7.23,0.77,11.14
			c-1.36,3.92-3.88,6.65-7.55,8.2C348.49,176.35,344.56,176.4,340.37,174.95z M341.57,136.74c-0.18-1.74-0.16-3.62,0.06-5.62
			c0.21-2,0.64-3.91,1.27-5.74c1.68-4.83,4.08-8.61,7.2-11.35c3.12-2.73,7.06-4.99,11.83-6.76c2.66-1.06,5.04-2.08,7.16-3.06
			c2.11-0.98,4.01-2.05,5.68-3.21c1.7-1.09,3.13-2.35,4.29-3.79c1.16-1.43,2.09-3.17,2.8-5.21c1.18-3.38,0.97-6.63-0.63-9.74
			s-4.38-5.36-8.35-6.74c-3.49-1.21-6.9-1.82-10.25-1.81c-3.34,0.01-7.15,0.36-11.42,1.04l-3.05-20.28
			c6.4-1.62,12.43-2.22,18.08-1.79s11.11,1.56,16.37,3.39c9.93,3.45,17.45,8.63,22.57,15.52c5.12,6.9,5.92,15.41,2.39,25.56
			c-1.16,3.33-2.6,6.19-4.34,8.59c-1.74,2.4-3.74,4.53-6.01,6.39c-2.34,1.89-4.97,3.55-7.87,4.98s-6.14,2.78-9.72,4.06
			c-4.64,1.75-8.33,3.53-11.05,5.31c-2.73,1.79-4.62,4.21-5.69,7.27c-0.36,1.02-0.59,1.92-0.71,2.69s-0.18,1.52-0.19,2.23
			L341.57,136.74z"/>
	</g>
</g>
<g>
	<g>
		<path class="st0" d="M304.57,6.23l23.12,72.07l-18.04,6.57l-28.51-70.11L304.57,6.23z M331.58,116.34
			c-3.83,1.4-7.41,1.41-10.74,0.04s-5.64-3.82-6.93-7.36c-1.31-3.59-1.13-6.98,0.54-10.17c1.67-3.19,4.42-5.48,8.25-6.88
			c3.78-1.38,7.33-1.38,10.63,0c3.3,1.38,5.61,3.86,6.92,7.45c1.29,3.54,1.11,6.9-0.53,10.08
			C338.08,112.69,335.36,114.96,331.58,116.34z"/>
	</g>
</g>
<g>
	<g>
		<path class="st0" d="M393.43,177.59c-0.62-0.63-1.21-1.36-1.77-2.21c-0.55-0.85-1-1.73-1.33-2.65c-0.88-2.42-1.15-4.66-0.8-6.73
			c0.35-2.06,1.17-4.2,2.47-6.41c0.7-1.26,1.31-2.42,1.82-3.47c0.51-1.06,0.91-2.08,1.19-3.06c0.32-0.97,0.47-1.92,0.47-2.85
			c0-0.93-0.19-1.9-0.56-2.93c-0.62-1.69-1.73-2.9-3.35-3.6c-1.61-0.71-3.42-0.7-5.41,0.03c-1.75,0.64-3.27,1.49-4.58,2.56
			c-1.3,1.07-2.68,2.42-4.13,4.04l-7.65-6.95c1.98-2.67,4.15-4.83,6.49-6.46c2.35-1.63,4.84-2.93,7.47-3.89
			c4.98-1.81,9.57-2.19,13.76-1.13c4.2,1.06,7.22,4.14,9.07,9.22c0.61,1.67,0.95,3.25,1.04,4.74s-0.02,2.96-0.31,4.41
			c-0.31,1.48-0.81,2.97-1.49,4.45s-1.51,3.04-2.5,4.68c-1.25,2.16-2.13,4.03-2.62,5.6c-0.5,1.57-0.46,3.12,0.09,4.65
			c0.19,0.51,0.38,0.94,0.58,1.27c0.2,0.34,0.41,0.65,0.64,0.93L393.43,177.59z M405.13,192.9c-2.1,0.76-4.07,0.77-5.92,0.01
			c-1.85-0.76-3.13-2.12-3.84-4.09c-0.72-1.96-0.62-3.83,0.29-5.61s2.42-3.05,4.55-3.83c2.13-0.77,4.11-0.77,5.97,0
			c1.85,0.77,3.13,2.14,3.85,4.11c0.72,1.96,0.6,3.83-0.33,5.61C408.75,190.86,407.23,192.13,405.13,192.9z"/>
	</g>
</g>
<g>
	<g>
		<path class="st0" d="M360.57,209.66c-1.25-0.49-2.13-1.27-2.66-2.35c-0.53-1.07-0.56-2.19-0.1-3.36c0.46-1.16,1.25-1.96,2.36-2.4
			c1.11-0.44,2.3-0.41,3.56,0.09s2.15,1.29,2.67,2.37c0.52,1.08,0.55,2.21,0.09,3.37c-0.46,1.17-1.25,1.96-2.38,2.38
			C363,210.18,361.81,210.15,360.57,209.66z M361.41,198.15c-0.03-0.53,0-1.09,0.09-1.69s0.24-1.17,0.46-1.71
			c0.57-1.44,1.34-2.55,2.31-3.33c0.97-0.79,2.19-1.42,3.65-1.89c0.81-0.29,1.55-0.56,2.2-0.83c0.65-0.27,1.23-0.57,1.75-0.9
			c0.53-0.31,0.97-0.67,1.34-1.09s0.67-0.93,0.91-1.53c0.4-1.01,0.37-1.99-0.07-2.95c-0.44-0.96-1.25-1.67-2.43-2.14
			c-1.04-0.41-2.06-0.63-3.07-0.67s-2.16,0.02-3.46,0.17l-0.67-6.16c1.95-0.41,3.78-0.51,5.48-0.31s3.33,0.61,4.89,1.23
			c2.95,1.17,5.16,2.82,6.61,4.96c1.46,2.14,1.59,4.72,0.4,7.74c-0.39,0.99-0.86,1.83-1.42,2.54c-0.55,0.7-1.19,1.32-1.89,1.85
			c-0.73,0.54-1.54,1.01-2.44,1.4c-0.89,0.39-1.89,0.76-2.98,1.1c-1.42,0.47-2.55,0.96-3.4,1.47c-0.85,0.5-1.45,1.21-1.81,2.12
			c-0.12,0.3-0.2,0.57-0.25,0.8s-0.07,0.46-0.09,0.67L361.41,198.15z"/>
	</g>
</g>
<path class="st4" d="M171.33,105.35c6.08-7.81,9.53-16.66,9.53-26.07c0-31.3-38.06-56.67-85.01-56.67S10.84,47.98,10.84,79.28
	s38.06,56.67,85.01,56.67c25.31,0,48.02-7.38,63.59-19.08c9.49,3.09,16.03,8.01,21.18,13.79
	C182.06,131.61,179.59,112.47,171.33,105.35z"/>
<g>
	<path class="st0" d="M169.1,27.4c13.03,2.97,20.34,16.99,20.61,29.58c0.17,4.21-0.21,8.39-1.32,12.44l-0.3-0.01
		c0.02-4.06-0.17-8.11-0.72-12.13c-1.1-7.96-3.71-15.96-8.98-22.14c-2.61-3.07-5.84-5.61-9.43-7.48L169.1,27.4L169.1,27.4z"/>
</g>
<g>
	<path class="st3" d="M151.44,25.2c8.9-3.48,19.13,5.3,17.73,14.58l-0.28,0.1c-2.77-7.98-8.97-13.49-17.48-14.38
		C151.41,25.5,151.44,25.2,151.44,25.2L151.44,25.2z"/>
</g>
<g>
	<path class="st0" d="M39.13,25.5c-4.1,2.02-7.74,3.47-11.26,6c-3.58,2.45-6.27,5.41-9.74,8.39l-0.27-0.12
		c2.62-6.3,7.74-11.87,14.49-13.65c2.2-0.64,4.49-0.92,6.77-0.92C39.13,25.2,39.13,25.5,39.13,25.5L39.13,25.5z"/>
</g>
<path class="st5" d="M-65.74,0"/>
<g>
	<g>
		<path class="st3" d="M59.41,104h-3.28l-5.94-8.9c-0.17-0.27-0.31-0.5-0.42-0.7c-0.11-0.2-0.2-0.36-0.26-0.5h-0.04
			c0.01,0.25,0.02,0.58,0.03,0.97s0.01,0.84,0.01,1.37V104h-3.07V89.58h3.5l5.72,8.62c0.12,0.19,0.24,0.39,0.36,0.59
			s0.23,0.39,0.33,0.59h0.04c-0.01-0.17-0.02-0.42-0.03-0.75s-0.01-0.74-0.01-1.23v-7.81h3.07V104H59.41z"/>
		<path class="st3" d="M67.15,104.25c-1.67,0-3.02-0.48-4.04-1.45s-1.53-2.27-1.52-3.91c0.01-1.64,0.52-2.95,1.54-3.95
			s2.41-1.49,4.16-1.49c1.72,0,3.07,0.5,4.05,1.49s1.47,2.25,1.47,3.77c0,1.65-0.53,2.98-1.59,4.01S68.8,104.25,67.15,104.25z
			 M67.25,101.78c0.78,0,1.36-0.28,1.74-0.84c0.39-0.56,0.58-1.28,0.58-2.16c0-0.88-0.19-1.57-0.58-2.08s-0.98-0.76-1.76-0.76
			c-0.76,0-1.36,0.27-1.78,0.82s-0.63,1.25-0.63,2.11s0.2,1.56,0.61,2.11S66.44,101.78,67.25,101.78z"/>
		<path class="st3" d="M81.57,103.27c-0.32,0.29-0.7,0.52-1.17,0.71c-0.46,0.18-0.97,0.28-1.51,0.28c-1.18,0-2.05-0.27-2.62-0.81
			s-0.85-1.35-0.85-2.43v-4.96h-1.67V93.7h1.67v-2.62l3.17-0.56v3.19h2.47v2.34h-2.47v4.94c0,0.32,0.07,0.55,0.21,0.71
			c0.14,0.16,0.33,0.24,0.58,0.24c0.15,0,0.3-0.03,0.45-0.08c0.15-0.05,0.31-0.15,0.48-0.31L81.57,103.27z"/>
		<path class="st3" d="M96.63,92.28h-5.09v3.47h4.68v2.68h-4.68V104h-3.25V89.58h8.34C96.63,89.58,96.63,92.28,96.63,92.28z"/>
		<path class="st3" d="M103.44,104.25c-1.67,0-3.02-0.48-4.04-1.45s-1.53-2.27-1.52-3.91c0.01-1.64,0.52-2.95,1.54-3.95
			s2.41-1.49,4.16-1.49c1.72,0,3.07,0.5,4.05,1.49s1.47,2.25,1.47,3.77c0,1.65-0.53,2.98-1.59,4.01S105.09,104.25,103.44,104.25z
			 M103.54,101.78c0.78,0,1.36-0.28,1.74-0.84c0.39-0.56,0.58-1.28,0.58-2.16c0-0.88-0.19-1.57-0.58-2.08s-0.98-0.76-1.76-0.76
			c-0.76,0-1.36,0.27-1.78,0.82s-0.63,1.25-0.63,2.11s0.2,1.56,0.61,2.11S102.73,101.78,103.54,101.78z"/>
		<path class="st3" d="M120.75,103.99h-3.18v-1.31h-0.04c-0.32,0.47-0.77,0.85-1.35,1.13s-1.16,0.43-1.74,0.43
			c-1.19,0-2.1-0.36-2.71-1.09s-0.92-1.75-0.92-3.07v-6.4h3.17v5.91c0,0.66,0.14,1.18,0.42,1.57s0.7,0.59,1.26,0.59
			c0.56,0,1.02-0.21,1.38-0.62c0.36-0.42,0.54-0.94,0.54-1.58v-5.87h3.18v10.31L120.75,103.99L120.75,103.99z"/>
		<path class="st3" d="M133.17,104H130v-5.91c0-0.66-0.14-1.18-0.42-1.57s-0.7-0.59-1.26-0.59s-1.02,0.21-1.38,0.62
			c-0.36,0.42-0.54,0.94-0.54,1.58V104h-3.18V93.7h3.18v1.31h0.04c0.33-0.47,0.8-0.85,1.4-1.13c0.6-0.28,1.2-0.43,1.8-0.43
			c1.16,0,2.04,0.36,2.63,1.09s0.9,1.75,0.9,3.07L133.17,104L133.17,104z"/>
		<path class="st3" d="M142.5,102.66c-0.37,0.53-0.82,0.93-1.37,1.19c-0.54,0.27-1.18,0.4-1.9,0.4c-1.31,0-2.36-0.45-3.16-1.36
			s-1.2-2.18-1.2-3.81c0-1.7,0.44-3.07,1.32-4.09c0.88-1.03,2.09-1.54,3.64-1.54c0.58,0,1.11,0.13,1.61,0.39s0.85,0.55,1.06,0.88
			h0.04v-5.96h3.18V104h-3.18v-1.34H142.5z M138.09,98.99c0,0.89,0.2,1.58,0.59,2.06c0.4,0.48,0.95,0.72,1.65,0.72
			c0.67,0,1.21-0.25,1.63-0.76s0.63-1.18,0.63-2.02v-0.77c0-0.66-0.2-1.2-0.6-1.64c-0.4-0.44-0.93-0.65-1.58-0.65
			c-0.73,0-1.3,0.27-1.71,0.82C138.3,97.29,138.09,98.04,138.09,98.99z"/>
	</g>
</g>
<g>
	<g>
		<path class="st3" d="M64.95,53.56h-8.44v25.73H49.4V53.56h-8.44v-5.78h23.99C64.95,47.78,64.95,53.56,64.95,53.56z"/>
		<path class="st3" d="M83.26,62.85c-0.48-0.16-0.96-0.28-1.43-0.36s-0.93-0.12-1.38-0.12c-1.38,0-2.5,0.55-3.36,1.66
			s-1.3,2.61-1.3,4.52v10.74h-6.94v-22.5h6.94v4h0.09c0.54-1.46,1.31-2.56,2.31-3.3s2.19-1.1,3.58-1.1c0.54,0,1.06,0.04,1.55,0.12
			c0.49,0.08,0.98,0.22,1.46,0.41L83.26,62.85z"/>
		<path class="st3" d="M107.78,70.01H93.1c0.1,1.45,0.6,2.6,1.51,3.46c0.9,0.86,2.08,1.29,3.55,1.29c0.89,0,1.71-0.22,2.45-0.66
			s1.4-1.1,1.99-1.98l5.1,2.9c-1.29,1.67-2.73,2.89-4.33,3.66c-1.6,0.77-3.37,1.15-5.32,1.15c-3.72,0-6.62-1.01-8.7-3.02
			s-3.12-4.82-3.12-8.43c0-3.74,1.08-6.69,3.25-8.88s4.83-3.27,8-3.27c3.28,0,5.82,0.97,7.61,2.92s2.69,4.88,2.69,8.79V70.01z
			 M101.34,65.62c0-1.54-0.33-2.69-0.98-3.46s-1.53-1.15-2.63-1.15c-1.32,0-2.38,0.44-3.2,1.32c-0.81,0.88-1.31,1.98-1.48,3.3h8.29
			V65.62z"/>
		<path class="st3" d="M130.74,79.29h-6.57v-2.53h-0.09c-0.83,1.03-1.81,1.79-2.93,2.31c-1.12,0.51-2.38,0.77-3.77,0.77
			c-1.9,0-3.55-0.59-4.94-1.77s-2.09-2.8-2.09-4.87c0-2.01,0.67-3.69,2-5.04s3.3-2.17,5.89-2.45l5.98-0.64v-0.68
			c0-1.1-0.35-1.93-1.04-2.48s-1.56-0.83-2.6-0.83s-1.96,0.24-2.75,0.73s-1.51,1.2-2.15,2.15l-4.64-2.77
			c0.81-1.29,2.09-2.44,3.87-3.44s3.87-1.51,6.28-1.51c3.11,0,5.47,0.8,7.11,2.4c1.63,1.6,2.45,4,2.45,7.21v13.44
			C130.75,79.29,130.74,79.29,130.74,79.29z M124.21,70.15v-0.86l-4.48,0.44c-1.04,0.12-1.8,0.41-2.27,0.87
			c-0.48,0.46-0.71,1.09-0.71,1.88c0,0.7,0.26,1.29,0.79,1.75s1.19,0.69,2,0.69c1.38,0,2.5-0.45,3.37-1.35
			C123.78,72.66,124.21,71.52,124.21,70.15z"/>
		<path class="st3" d="M150.87,77.68c-0.69,0.63-1.54,1.15-2.55,1.55c-1.01,0.4-2.11,0.6-3.3,0.6c-2.58,0-4.49-0.59-5.73-1.78
			s-1.87-2.96-1.87-5.32V61.91h-3.65v-5.12h3.65v-5.73l6.92-1.23v6.97h5.41v5.12h-5.41V72.7c0,0.69,0.15,1.21,0.45,1.56
			s0.72,0.53,1.26,0.53c0.32,0,0.65-0.06,0.98-0.16c0.33-0.11,0.68-0.33,1.04-0.67L150.87,77.68z"/>
	</g>
</g>
</svg>
