<!--!Dev Kitty Icons by @syrupstudios - https://devkittyjs.github.io License - https://devkittyjs.github.io/license/ Copyright 2025 DevKitty, Co.-->
<svg viewBox="0 0 274 183" fill="none" xmlns="http://www.w3.org/2000/svg">
<path d="M53.8158 150.942L96.4837 150.568L117.218 150.607C117.218 150.607 120.918 152.252 123.879 158.223C124.97 160.424 126.997 164.36 127.036 166.412C127.08 168.649 126.922 167.86 126.816 168.244C126.736 168.528 126.538 169.342 125.932 170.24C125.646 170.663 125.016 171.35 124.157 171.9C123.43 172.365 122.462 172.692 122.208 173.082C121.738 173.806 121.854 175.203 121.658 175.892C121.339 177.009 120.274 178.049 120.008 178.322C119.471 178.873 118.345 179.652 117.163 180.019C115.759 180.456 114.275 180.424 113.6 180.329C112.687 180.2 111.594 179.957 110.931 179.929C110.657 179.917 110.488 180.708 109.918 180.97C109.373 181.22 108.692 181.907 108.004 182.09C106.938 182.375 106.768 182.55 106.136 182.523C105.635 182.502 104.959 182.62 104.305 182.401C104.005 182.3 102.787 181.835 101.778 181.019C100.65 180.106 99.7144 178.823 99.2211 178.512C98.7483 178.214 96.9165 176.078 95.0989 173.544C93.7263 171.63 92.4211 169.429 91.3795 167.957C89.8516 165.797 88.4918 162.567 86.063 160.517C81.6994 156.833 73.8921 153.752 69.9416 152.466C63.6199 150.407 53.8158 150.942 53.8158 150.942Z" fill="black"/>
<path d="M202.267 152.484C198.316 153.77 190.509 156.851 186.145 160.534C183.716 162.585 182.357 165.815 180.829 167.975C179.787 169.447 178.482 171.648 177.109 173.562C175.292 176.096 173.46 178.232 172.987 178.53C172.494 178.841 171.558 180.124 170.43 181.037C169.421 181.853 168.203 182.318 167.903 182.419C167.249 182.638 166.573 182.52 166.072 182.541C165.44 182.568 165.27 182.393 164.205 182.108C163.516 181.925 162.835 181.238 162.29 180.987C161.72 180.726 161.551 179.935 161.277 179.947C160.614 179.975 159.521 180.217 158.608 180.347C157.933 180.442 156.449 180.474 155.045 180.037C153.863 179.67 152.738 178.89 152.201 178.34C151.935 178.067 150.87 177.027 150.551 175.91C150.354 175.221 150.47 173.824 150 173.1C149.747 172.71 148.778 172.383 148.051 171.918C147.192 171.368 146.562 170.681 146.277 170.258C145.671 169.36 145.472 168.546 145.393 168.261C145.286 167.878 145.128 168.667 145.172 166.43C145.212 164.378 147.238 160.442 148.329 158.241C151.29 152.27 154.99 150.625 154.99 150.625L172.634 150.512L217.411 150.488C217.411 150.488 208.588 150.425 202.267 152.484Z" fill="black"/>
<path d="M271.844 152.237H2H271.844Z" fill="black"/>
<path d="M271.844 152.237H2" stroke="black" stroke-width="3.5" stroke-miterlimit="10" stroke-linecap="round"/>
<path d="M10.3546 90.9857L28.4594 97.9333L10.3546 90.9857Z" fill="black"/>
<path d="M10.3546 90.9857L28.4594 97.9333" stroke="black" stroke-width="5.5" stroke-miterlimit="10" stroke-linecap="round"/>
<path d="M6.08721 107.2L26.7655 108.626L6.08721 107.2Z" fill="black"/>
<path d="M6.08721 107.2L26.7655 108.626" stroke="black" stroke-width="5.5" stroke-miterlimit="10" stroke-linecap="round"/>
<path d="M10.3655 122.531L25.3394 119.322L10.3655 122.531Z" fill="black"/>
<path d="M10.3655 122.531L25.3394 119.322" stroke="black" stroke-width="5.5" stroke-miterlimit="10" stroke-linecap="round"/>
<path d="M261.689 91.8112L242.72 99.3048L261.689 91.8112Z" fill="black"/>
<path d="M261.689 91.8112L242.72 99.3048" stroke="black" stroke-width="5.5" stroke-miterlimit="10" stroke-linecap="round"/>
<path d="M267.777 107.267L243.891 108.906L267.777 107.267Z" fill="black"/>
<path d="M267.777 107.267L243.891 108.906" stroke="black" stroke-width="5.5" stroke-miterlimit="10" stroke-linecap="round"/>
<path d="M263.562 122.722L245.765 118.507L263.562 122.722Z" fill="black"/>
<path d="M263.562 122.722L245.765 118.507" stroke="black" stroke-width="5.5" stroke-miterlimit="10" stroke-linecap="round"/>
<path d="M219.138 0.0619896C220.481 -0.117186 221.364 0.146441 222.618 0.172341C223.212 0.184571 224.677 0.484969 226.277 1.37742C227.763 2.2058 229.405 3.62666 229.553 3.75535C230.917 4.94755 231.865 7.02104 232.164 7.55027C232.928 8.90316 233.122 10.7258 233.51 12.4848C234.19 15.5719 234.572 19.2666 235.248 23.3403C236.548 31.168 237.785 40.6913 239.092 49.6968C239.657 53.5938 240.163 57.2474 240.568 60.9663C240.789 62.9892 240.813 65.0318 241.184 67.143C241.654 69.8237 244.456 100.396 244.795 102.725C245.51 107.643 246.249 112.158 246.522 113.949C247.283 118.934 247.801 124.554 248.012 125.796C248.58 129.148 249.189 133.799 250.039 139.462C250.81 144.599 251.014 150.942 251.014 150.942L20.8232 151.362C20.8232 151.362 21.0068 146.303 21.751 140.782C22.5448 134.893 23.4983 127.999 24.0508 124.661C24.2646 123.368 25.6063 114.7 27.1904 102.988C27.8437 98.1579 29.6046 80.5385 30.9219 67.9868C31.5684 61.8267 32.2345 56.6333 32.3643 55.2651C33.3144 45.2422 34.6688 37.0572 34.9658 33.7134C35.5412 27.2369 36.8533 19.9798 38.082 13.188C38.4058 11.3983 39.087 9.87467 39.458 8.34129C39.5916 7.7891 40.8432 5.72127 40.916 5.46726C41.2289 4.37633 43.5337 2.91898 43.8174 2.13133C43.9697 1.70764 47.9131 -0.744645 55.3105 0.370583C56.6135 0.567023 58.1628 0.834594 59.7666 1.43015C60.1607 1.5764 64.3098 2.86005 68.833 5.42918C76.1106 9.56281 85.003 15.7336 85.627 16.1704C87.4279 17.4313 92.2125 21.3532 95.2666 24.0249C97.7087 26.1612 98.6538 27.2546 98.9678 27.3511C99.7497 27.591 99.7319 28.3312 99.9326 28.2026C99.9491 28.2143 100.339 28.7337 101.031 28.5473C102.488 28.1556 105.422 28.0476 108.93 27.7612C113.125 27.4186 118.331 27.034 123.462 26.7573C126.926 26.5705 130.369 26.2995 133.418 26.2954C135.527 26.2926 139.748 26.2241 143.886 26.4048C148.97 26.6267 154.038 27.1177 156.215 27.268C162.094 27.6741 166.705 28.3389 167.394 28.3745C168.409 28.4268 169.725 28.6088 170.566 28.6841C171.002 28.723 171.519 28.6286 171.593 28.5776C171.874 28.3829 171.968 28.2455 172.264 27.9917C172.94 27.412 173.584 26.7722 173.883 26.5053C174.658 25.8121 176.77 23.9658 179.25 21.8637C181.373 20.0642 183.794 18.0493 185.571 16.7173C189.103 14.0699 194.122 10.9306 195.569 9.99851C198.577 8.06109 201.156 6.63193 202.417 5.93211C204.599 4.72132 207.019 3.61559 208.008 3.16062C208.961 2.72234 210.949 1.74777 213.458 1.08543C215.928 0.433454 218.924 0.0905285 219.138 0.0619896ZM221.856 100.682C217.345 100.682 213.689 104.339 213.688 108.85C213.688 113.361 217.345 117.019 221.856 117.019C226.368 117.019 230.025 113.361 230.025 108.85C230.025 104.339 226.368 100.682 221.856 100.682ZM51.8984 100.345C47.3873 100.345 43.7306 104.002 43.7305 108.513C43.7305 113.024 47.3873 116.682 51.8984 116.682C56.4098 116.682 60.0674 113.025 60.0674 108.513C60.0673 104.002 56.4097 100.345 51.8984 100.345ZM97.3916 65.1137C96.6368 65.1137 95.1571 65.16 94.1094 65.2573L93.6904 65.3022C91.6214 65.5592 87.5941 66.4543 84.0977 68.2729L83.4062 68.6489C79.846 70.6749 76.9506 73.5565 75.7363 74.8872L75.3213 75.355C74.6327 76.1646 73.1885 77.9218 72.3027 80.1587L72.1328 80.6128C71.2213 83.2147 70.7826 86.3432 70.7939 88.062L70.8096 88.7436C70.9437 92.1335 71.8715 95.2412 72.3018 96.3218L72.4609 96.7104C73.2769 98.6493 74.3893 100.533 75.0664 101.308L75.4795 101.758C77.6801 104.049 81.8867 106.884 87.248 108.048L88.5332 108.324C89.98 108.619 91.8799 108.935 93.9463 108.908L94.7588 108.887C96.6733 108.816 98.6999 108.58 100.626 108.082L101.123 107.946C102.388 107.578 104.365 106.867 106.336 105.774L106.721 105.555C108.643 104.435 110.525 102.961 110.778 102.793L111.055 102.593C111.699 102.085 112.33 101.299 112.921 100.368C113.6 99.2978 114.24 98.012 114.797 96.6733C115.909 94.0016 116.705 91.0835 116.812 89.2085L116.832 88.7719C116.892 86.8485 116.655 84.5232 116.372 82.6177L116.239 81.771C115.4 76.6928 112.842 73.1364 110.725 70.9702L110.308 70.5561C105.908 66.3018 99.8103 65.114 97.3916 65.1137ZM175.852 65.0581C173.509 65.0581 167.713 66.1722 163.353 70.1098L162.936 70.5005C160.818 72.548 158.076 76.0696 157.093 81.2124L157.003 81.7153C156.645 83.8777 156.299 86.8675 156.43 89.1528L156.458 89.5161C156.638 91.3914 157.403 94.1128 158.445 96.6177C159.002 97.9565 159.643 99.2421 160.322 100.312C160.998 101.377 161.725 102.25 162.465 102.738L162.984 103.119C163.791 103.716 165.369 104.866 166.906 105.718L167.328 105.947C169.437 107.06 171.495 107.737 172.616 108.027L173.03 108.129C175.108 108.623 177.284 108.825 179.297 108.852H179.81C182.355 108.818 184.603 108.295 185.994 107.993L186.526 107.871C191.986 106.555 196.182 103.534 198.176 101.252L198.317 101.083C199.049 100.165 200.168 98.2079 200.941 96.2661L201.137 95.73C201.641 94.2457 202.427 91.1981 202.448 88.0063L202.445 87.6684C202.406 86.0168 202.021 83.3782 201.274 81.0503L201.109 80.5571C200.358 78.4113 199.042 76.656 198.233 75.6723L197.921 75.2993C197.131 74.3705 194.103 71.121 190.216 68.8139L189.837 68.5932C186.422 66.6501 182.31 65.6504 179.991 65.3071L179.552 65.2466C178.522 65.1187 176.714 65.0581 175.852 65.0581ZM137.119 82.7348C136.737 82.7439 136.035 82.729 135.299 82.811L134.981 82.852C134.135 82.9803 133.287 83.2333 132.743 83.438L132.529 83.5219C131.994 83.7446 131.507 84.049 131.136 84.3198C130.861 84.5202 130.64 84.7097 130.505 84.8403L130.4 84.9507C130.337 85.025 130.274 85.0804 130.19 85.1645C130.134 85.2215 130.069 85.2903 130.015 85.3735L129.964 85.4624C129.929 85.5326 129.881 85.6363 129.837 85.7387L129.729 86.0122C129.667 86.202 129.664 86.3596 129.686 86.478C129.696 86.5361 129.712 86.5834 129.727 86.6186C129.734 86.6362 129.742 86.6509 129.748 86.6626C129.751 86.6684 129.754 86.6739 129.757 86.6782C129.758 86.6802 129.76 86.6824 129.761 86.6841L129.762 86.687L129.764 86.6889L129.835 86.7964L129.964 86.8012H130C130.021 86.8016 130.052 86.8025 130.088 86.8022C130.159 86.8017 130.257 86.7984 130.354 86.7895L130.682 86.7749C131.116 86.7638 131.836 86.7638 132.528 86.768C132.6 86.7685 132.67 86.7685 132.74 86.769C132.744 86.7702 132.748 86.7717 132.752 86.7729C132.972 86.8408 133.246 86.9437 133.481 87.0854L133.638 87.1889C133.789 87.3002 133.927 87.431 134.057 87.5669C134.143 87.6573 134.224 87.7482 134.302 87.8364C134.378 87.9228 134.455 88.0095 134.528 88.0844L134.735 88.3257C134.857 88.4747 135.008 88.6751 135.141 88.8891L135.39 89.3218C135.467 89.4646 135.538 89.6027 135.598 89.7231C135.657 89.8429 135.705 89.9453 135.738 90.0171C135.74 90.0218 135.743 90.0263 135.745 90.0307V95.5288C135.636 95.6345 135.544 95.762 135.478 95.9087L135.464 95.936C135.448 95.9675 135.42 96.0196 135.381 96.0874C135.302 96.224 135.178 96.4197 135.009 96.6372C134.707 97.0247 134.289 97.4454 133.753 97.7466L133.516 97.8677C133.314 97.961 132.774 98.0909 132.028 98.1137C131.399 98.133 130.748 98.0713 130.203 97.9204L129.977 97.8501C129.482 97.6794 128.638 97.2498 128.187 96.6343L128.102 96.5083C127.904 96.1888 127.794 95.7157 127.754 95.2309C127.735 95.004 127.733 94.8044 127.736 94.6636C127.738 94.5938 127.741 94.5399 127.743 94.5063L127.746 94.4721C127.812 93.7851 127.307 93.1749 126.62 93.1089C125.933 93.0433 125.323 93.5468 125.257 94.2339L126.558 94.3579L126.501 94.353C125.338 94.2416 125.262 94.235 125.257 94.2348V94.2397C125.257 94.2421 125.256 94.2453 125.256 94.2485C125.255 94.2548 125.255 94.2626 125.254 94.2719C125.252 94.2913 125.25 94.3177 125.248 94.3491C125.244 94.4118 125.24 94.498 125.237 94.603C125.232 94.8127 125.235 95.1044 125.263 95.4389C125.316 96.0773 125.474 97.0101 125.974 97.8208L126.147 98.0805C127.054 99.34 128.509 99.9885 129.16 100.213L129.523 100.327C130.38 100.566 131.299 100.636 132.104 100.612C133 100.584 133.926 100.433 134.567 100.136L134.774 100.036C135.725 99.549 136.417 98.8672 136.885 98.2915C137.31 98.8831 137.914 99.5139 138.744 99.9087L138.978 100.01C139.548 100.24 140.293 100.412 141.074 100.489C141.98 100.578 143.039 100.55 144.06 100.279L144.396 100.179C145.167 99.9243 145.856 99.5271 146.397 99.1352C146.996 98.7022 147.524 98.1956 147.807 97.7661L147.909 97.603C148.399 96.7803 148.568 95.869 148.629 95.2221C148.663 94.8638 148.667 94.5519 148.662 94.3276C148.66 94.215 148.655 94.1223 148.65 94.0552C148.648 94.0217 148.646 93.9938 148.645 93.9731C148.644 93.963 148.642 93.9545 148.642 93.9477C148.641 93.9445 148.642 93.9414 148.642 93.9389C148.641 93.9377 148.641 93.9361 148.641 93.935V93.9331L147.455 94.0512L148.641 93.9321C148.572 93.2453 147.958 92.7441 147.271 92.813C146.585 92.8821 146.084 93.4942 146.152 94.1802L146.153 94.1821C146.154 94.1884 146.154 94.2004 146.155 94.2173C146.158 94.2526 146.16 94.3094 146.162 94.3833C146.165 94.5325 146.164 94.7453 146.141 94.9878C146.098 95.4356 145.994 95.8899 145.806 96.2446L145.72 96.3901C145.667 96.4704 145.401 96.7698 144.932 97.1098C144.538 97.3945 144.08 97.6494 143.616 97.8032L143.418 97.8628C142.756 98.0388 142.008 98.0682 141.318 98.0005C140.791 97.9486 140.354 97.8457 140.061 97.7466L139.817 97.6509C139.357 97.4316 138.964 96.9685 138.663 96.4389C138.521 96.1884 138.418 95.9543 138.351 95.7846C138.318 95.7009 138.293 95.6351 138.279 95.5932C138.272 95.5729 138.268 95.558 138.266 95.5503L138.265 95.5473V95.5483C138.259 95.5294 138.251 95.5111 138.245 95.4927V90.1499L138.256 90.1245V90.1235L138.257 90.1225C138.257 90.1215 138.258 90.1194 138.259 90.1177C138.261 90.1133 138.264 90.1065 138.268 90.0981C138.275 90.0803 138.287 90.0533 138.302 90.02C138.332 89.9525 138.376 89.8556 138.431 89.7417C138.541 89.5124 138.695 89.214 138.869 88.9331L139.047 88.6733C139.231 88.4271 139.429 88.2172 139.597 88.0141L139.777 87.8022C139.979 87.5769 140.239 87.3192 140.534 87.1245L140.701 87.0219C140.869 86.9249 141.037 86.8436 141.177 86.7827C141.18 86.7811 141.184 86.7794 141.188 86.7778C141.467 86.778 141.812 86.7788 142.163 86.7807L142.958 86.7905C143.214 86.7931 143.453 86.7928 143.642 86.7837L143.971 86.7719L144.055 86.7524C144.083 86.7411 144.111 86.7239 144.137 86.7007C144.185 86.6568 144.207 86.6056 144.218 86.5708C144.235 86.5113 144.231 86.4519 144.229 86.4321C144.225 86.3625 144.222 86.3464 144.225 86.3208L144.231 86.228C144.234 86.071 144.196 85.8983 144.134 85.7329L144.047 85.5386C143.875 85.2058 143.567 84.8663 143.305 84.6128L143.065 84.3911C142.859 84.2095 142.283 83.7926 141.583 83.48L141.276 83.353C140.678 83.1269 140.02 83.0144 139.575 82.9526L139.212 82.9048C138.909 82.8661 138.218 82.7494 137.451 82.7348H137.119ZM55.5449 13.5522C54.7713 13.2574 52.9413 12.5134 51.5215 12.7544C51.1954 12.8098 50.4334 13.0426 49.7158 13.4848C49.1438 13.8374 48.5992 14.3238 48.3262 14.9585C48.2291 15.1838 47.8241 15.8053 47.6133 16.5542C47.454 17.1201 47.0647 18.6456 46.7744 20.3423C46.5623 21.5818 46.2555 24.3781 45.9346 27.0815C45.5079 30.6762 45.0556 34.5255 44.7676 38.3989C44.75 38.6349 44.4377 41.5785 44.1963 45.7046C44.0745 47.7863 44.0536 50.1696 43.9297 52.6577C43.8251 54.7576 43.612 56.9265 43.5166 59.0317C43.3953 61.7095 43.1899 64.2842 43.1162 66.4819C43.064 68.0396 43.043 69.4081 43.0342 70.4897C43.0228 71.8816 43.0306 72.7988 43.0137 73.0337C42.8973 74.6343 43.3725 75.2946 44.3438 74.0581C47.9252 69.4984 56.8597 58.32 61.9336 53.7036C67.0654 49.0345 77.5185 42.8163 80.377 41.1098C80.8621 40.8202 81.0126 40.0306 80.4736 39.5757C80.1872 39.3339 75.2409 32.7741 70.4951 27.2212C67.3248 23.5117 64.0516 20.3796 63.0264 19.4077C59.6631 16.2194 56.4387 13.8931 55.5449 13.5522ZM219.124 10.0718C217.698 9.87318 215.891 10.6709 215.126 10.9887C214.243 11.3557 211.09 13.7782 207.823 17.0659C206.828 18.068 203.649 21.2965 200.591 25.0991C196.013 30.7911 191.266 37.4955 190.986 37.7466C190.461 38.2174 190.635 39.0018 191.129 39.2768C194.037 40.8971 204.671 46.8004 209.94 51.3139C215.15 55.7767 224.415 66.6827 228.131 71.1333C229.139 72.3402 229.594 71.6662 229.43 70.0698C229.406 69.8358 229.386 68.9188 229.333 67.5278C229.292 66.4469 229.231 65.0793 229.132 63.5239C228.992 61.3294 228.709 58.7623 228.508 56.0893C228.35 53.9879 228.072 51.8259 227.904 49.73C227.706 47.2466 227.615 44.8649 227.431 42.7876C227.066 38.6689 226.665 35.7354 226.641 35.5024C226.237 31.6393 225.671 27.8054 225.137 24.2251C224.735 21.5325 224.345 18.7468 224.096 17.5141C223.755 15.8265 223.32 14.313 223.144 13.7524C222.91 13.0099 222.486 12.4012 222.383 12.1792C222.091 11.553 221.533 11.0839 220.95 10.7485C220.22 10.3279 219.452 10.1174 219.124 10.0718Z" fill="black"/>
<path d="M97.517 73.96C98.6604 73.9441 100.178 74.0117 101.83 74.8262L102.097 74.9659C102.726 75.3145 103.389 75.8096 103.961 76.2862C104.616 76.8318 105.168 77.3677 105.429 77.6602L105.691 77.9766C106.335 78.8074 107.184 80.2111 107.534 80.8633L107.653 81.0938C108.841 83.478 108.687 85.8652 108.687 87.6915C108.687 88.6267 108.833 90.6674 108.033 92.8555L107.86 93.295C107.337 94.5329 106.524 95.7857 105.762 96.8028C105.191 97.5651 104.643 98.2035 104.257 98.6124L103.932 98.9415C102.845 99.9562 101.501 100.687 100.262 101.164C99.0274 101.64 97.8738 101.873 97.1596 101.873C97.1297 101.873 96.4258 101.828 95.4897 101.671C94.665 101.533 93.6397 101.305 92.7201 100.935L92.3334 100.767C91.5541 100.403 89.8913 99.4416 88.6801 97.9268L88.4447 97.6163C87.4909 96.2932 86.8951 94.6228 86.5561 93.5333L86.2992 92.671C85.5303 90.1084 85.9522 87.1614 85.9526 86.5714C85.9526 85.2686 86.1939 82.4524 87.6117 79.9522L87.8588 79.5421C88.4622 78.5952 89.2469 77.7169 89.9877 77.0098C90.8313 76.2046 91.6387 75.6019 92.0815 75.3682L92.4985 75.1583C93.5657 74.6465 95.2582 74.0157 97.0502 73.9698L97.517 73.96ZM101.653 79.3419C101.425 79.3615 101.172 79.4758 100.931 79.6348C100.684 79.7975 100.427 80.022 100.187 80.2911C99.7683 80.7605 99.3877 81.3834 99.2182 82.0811L99.1586 82.3839C99.0935 82.8257 99.1167 83.4911 99.2436 84.1583C99.3702 84.8236 99.6075 85.5294 99.9955 86.0313L100.138 86.1973C100.484 86.5625 100.914 86.7657 101.293 86.8751C101.724 86.9991 102.113 87.0097 102.29 86.9903L102.407 86.9708C102.689 86.9055 103.04 86.7166 103.367 86.4717C103.748 86.1852 104.138 85.7896 104.39 85.334L104.486 85.1475C104.869 84.3307 104.886 83.4173 104.861 82.9268L104.847 82.7325C104.764 81.7717 104.348 80.8989 103.769 80.2794C103.228 79.7012 102.524 79.3238 101.798 79.334L101.653 79.3419Z" fill="black"/>
<path d="M172.464 74.702C174.213 73.94 175.786 73.9804 176.892 74.0086L177.274 74.0272C179.175 74.1618 180.919 74.9106 181.861 75.407L182.043 75.5115C182.506 75.7942 183.216 76.3439 183.954 77.0486C184.801 77.8568 185.705 78.8886 186.33 79.991L186.583 80.4637C187.778 82.8376 187.99 85.3888 187.99 86.6102C187.99 87.1628 188.361 89.7878 187.774 92.2254L187.644 92.7098C187.419 93.4585 186.847 95.5988 185.729 97.3172L185.498 97.6551C184.429 99.1379 182.889 100.14 181.964 100.628L181.609 100.805C180.599 101.277 179.395 101.552 178.452 101.71C177.512 101.867 176.807 101.912 176.783 101.912C176.068 101.912 174.915 101.679 173.68 101.203C172.519 100.755 171.265 100.085 170.217 99.1668L170.011 98.9803C169.662 98.6547 168.941 97.8579 168.18 96.8416C167.514 95.9515 166.808 94.8808 166.291 93.7977L166.082 93.3338C165.089 90.9833 165.255 88.7277 165.255 87.7303C165.255 85.8452 165.092 83.3623 166.409 80.9022L166.587 80.5809C167.065 79.7412 167.942 78.3394 168.513 77.699L168.761 77.4373C169.057 77.1378 169.49 76.7341 169.981 76.325C170.635 75.7804 171.408 75.212 172.112 74.8651L172.464 74.702ZM172.271 79.1063C171.494 79.0391 170.731 79.4271 170.155 80.0438C169.611 80.6246 169.211 81.4282 169.095 82.3182L169.076 82.4969C169.038 82.9255 168.989 84.1152 169.533 85.0984L169.633 85.2664C169.882 85.6512 170.222 85.9854 170.556 86.2361C170.929 86.516 171.336 86.7221 171.633 86.7547L171.803 86.7625C172.008 86.7618 172.307 86.7326 172.63 86.6395C173.064 86.5145 173.563 86.2676 173.928 85.7957L174.067 85.5984C174.374 85.1182 174.568 84.5049 174.679 83.9227C174.79 83.3387 174.822 82.7564 174.784 82.324L174.764 82.1483C174.643 81.3284 174.215 80.5918 173.737 80.0555C173.497 79.7863 173.238 79.562 172.992 79.3992C172.781 79.2601 172.561 79.1553 172.357 79.118L172.271 79.1063Z" fill="black"/>
</svg>
