<?xml version="1.0" encoding="utf-8"?>
<!-- Generator: Adobe Illustrator 29.8.3, SVG Export Plug-In . SVG Version: 9.03 Build 0)  -->
<svg version="1.1" id="Layer_1" xmlns="http://www.w3.org/2000/svg" xmlns:xlink="http://www.w3.org/1999/xlink" x="0px" y="0px"
	 viewBox="0 0 274 183" style="enable-background:new 0 0 274 183;" xml:space="preserve">
<style type="text/css">
	.st0{fill:#D0D0DA;}
	.st1{fill:#D0D0DA;stroke:#D0D0DA;stroke-width:3.5;stroke-linecap:round;stroke-miterlimit:10;}
	.st2{fill:#D0D0DA;stroke:#D0D0DA;stroke-miterlimit:10;}
	.st3{fill:#D0D0DA;stroke:#D0D0DA;stroke-width:5.5;stroke-linecap:round;stroke-miterlimit:10;}
</style>
<path class="st0" d="M53.82,150.94l42.67-0.37l20.73,0.04c0,0,3.7,1.65,6.66,7.62c1.09,2.2,3.12,6.14,3.16,8.19
	c0.04,2.24-0.11,1.45-0.22,1.83c-0.08,0.28-0.28,1.1-0.88,2c-0.29,0.42-0.92,1.11-1.78,1.66c-0.73,0.47-1.69,0.79-1.95,1.18
	c-0.47,0.72-0.35,2.12-0.55,2.81c-0.32,1.12-1.38,2.16-1.65,2.43c-0.54,0.55-1.66,1.33-2.85,1.7c-1.4,0.44-2.89,0.4-3.56,0.31
	c-0.91-0.13-2.01-0.37-2.67-0.4c-0.27-0.01-0.44,0.78-1.01,1.04c-0.54,0.25-1.23,0.94-1.91,1.12c-1.07,0.29-1.24,0.46-1.87,0.43
	c-0.5-0.02-1.18,0.1-1.83-0.12c-0.3-0.1-1.52-0.57-2.53-1.38c-1.13-0.91-2.06-2.2-2.56-2.51c-0.47-0.3-2.3-2.43-4.12-4.97
	c-1.37-1.91-2.68-4.12-3.72-5.59c-1.53-2.16-2.89-5.39-5.32-7.44c-4.36-3.68-12.17-6.76-16.12-8.05
	C63.62,150.41,53.82,150.94,53.82,150.94z"/>
<path class="st0" d="M202.27,152.48c-3.95,1.29-11.76,4.37-16.12,8.05c-2.43,2.05-3.79,5.28-5.32,7.44
	c-1.04,1.47-2.35,3.67-3.72,5.59c-1.82,2.53-3.65,4.67-4.12,4.97c-0.49,0.31-1.43,1.59-2.56,2.51c-1.01,0.82-2.23,1.28-2.53,1.38
	c-0.65,0.22-1.33,0.1-1.83,0.12c-0.63,0.03-0.8-0.15-1.87-0.43c-0.69-0.18-1.37-0.87-1.92-1.12c-0.57-0.26-0.74-1.05-1.01-1.04
	c-0.66,0.03-1.76,0.27-2.67,0.4c-0.68,0.1-2.16,0.13-3.56-0.31c-1.18-0.37-2.31-1.15-2.84-1.7c-0.27-0.27-1.33-1.31-1.65-2.43
	c-0.2-0.69-0.08-2.09-0.55-2.81c-0.25-0.39-1.22-0.72-1.95-1.18c-0.86-0.55-1.49-1.24-1.77-1.66c-0.61-0.9-0.8-1.71-0.88-2
	c-0.11-0.38-0.26,0.41-0.22-1.83c0.04-2.05,2.07-5.99,3.16-8.19c2.96-5.97,6.66-7.62,6.66-7.62l17.64-0.11l44.78-0.02
	C217.41,150.49,208.59,150.43,202.27,152.48z"/>
<path class="st0" d="M271.84,152.24H2H271.84z"/>
<path class="st1" d="M271.84,152.24H2"/>
<path class="st2" d="M10.35,90.99l18.1,6.95L10.35,90.99z"/>
<path class="st3" d="M10.35,90.99l18.1,6.95"/>
<path class="st2" d="M6.09,107.2l20.68,1.43L6.09,107.2z"/>
<path class="st3" d="M6.09,107.2l20.68,1.43"/>
<path class="st2" d="M10.37,122.53l14.97-3.21L10.37,122.53z"/>
<path class="st3" d="M10.37,122.53l14.97-3.21"/>
<path class="st2" d="M261.69,91.81l-18.97,7.49L261.69,91.81z"/>
<path class="st3" d="M261.69,91.81l-18.97,7.49"/>
<path class="st2" d="M267.78,107.27l-23.89,1.64L267.78,107.27z"/>
<path class="st3" d="M267.78,107.27l-23.89,1.64"/>
<path class="st2" d="M263.56,122.72l-17.8-4.21L263.56,122.72z"/>
<path class="st3" d="M263.56,122.72l-17.8-4.21"/>
<path class="st0" d="M219.14,0.06c1.34-0.18,2.23,0.08,3.48,0.11c0.59,0.01,2.06,0.31,3.66,1.21c1.49,0.83,3.13,2.25,3.28,2.38
	c1.36,1.19,2.31,3.27,2.61,3.79c0.76,1.35,0.96,3.18,1.35,4.93c0.68,3.09,1.06,6.78,1.74,10.86c1.3,7.83,2.54,17.35,3.84,26.36
	c0.57,3.9,1.07,7.55,1.48,11.27c0.22,2.02,0.25,4.07,0.62,6.18c0.47,2.68,3.27,33.25,3.61,35.58c0.71,4.92,1.45,9.43,1.73,11.22
	c0.76,4.99,1.28,10.61,1.49,11.85c0.57,3.35,1.18,8,2.03,13.67c0.77,5.14,0.98,11.48,0.98,11.48l-230.19,0.42
	c0,0,0.18-5.06,0.93-10.58c0.79-5.89,1.75-12.78,2.3-16.12c0.21-1.29,1.56-9.96,3.14-21.67c0.65-4.83,2.41-22.45,3.73-35
	c0.65-6.16,1.31-11.35,1.44-12.72c0.95-10.02,2.3-18.21,2.6-21.55c0.58-6.48,1.89-13.73,3.12-20.53c0.32-1.79,1.01-3.31,1.38-4.85
	c0.13-0.55,1.39-2.62,1.46-2.87c0.31-1.09,2.62-2.55,2.9-3.34c0.15-0.42,4.1-2.88,11.49-1.76c1.3,0.2,2.85,0.46,4.46,1.06
	c0.39,0.15,4.54,1.43,9.07,4C76.11,9.56,85,15.73,85.63,16.17c1.8,1.26,6.59,5.18,9.64,7.85c2.44,2.14,3.39,3.23,3.7,3.33
	c0.78,0.24,0.76,0.98,0.96,0.85c0.02,0.01,0.41,0.53,1.1,0.34c1.46-0.39,4.39-0.5,7.9-0.79c4.19-0.34,9.4-0.73,14.53-1
	c3.46-0.19,6.91-0.46,9.96-0.46c2.11,0,6.33-0.07,10.47,0.11c5.08,0.22,10.15,0.71,12.33,0.86c5.88,0.41,10.49,1.07,11.18,1.11
	c1.01,0.05,2.33,0.23,3.17,0.31c0.44,0.04,0.95-0.06,1.03-0.11c0.28-0.19,0.38-0.33,0.67-0.59c0.68-0.58,1.32-1.22,1.62-1.49
	c0.78-0.69,2.89-2.54,5.37-4.64c2.12-1.8,4.54-3.81,6.32-5.15c3.53-2.65,8.55-5.79,10-6.72c3.01-1.94,5.59-3.37,6.85-4.07
	c2.18-1.21,4.6-2.32,5.59-2.77c0.95-0.44,2.94-1.41,5.45-2.08C215.93,0.43,218.92,0.09,219.14,0.06z M221.86,100.68
	c-4.51,0-8.17,3.66-8.17,8.17c0,4.51,3.66,8.17,8.17,8.17s8.17-3.66,8.17-8.17S226.37,100.68,221.86,100.68z M51.9,100.35
	c-4.51,0-8.17,3.66-8.17,8.17c0,4.51,3.66,8.17,8.17,8.17s8.17-3.66,8.17-8.17C60.07,104,56.41,100.35,51.9,100.35z M97.39,65.11
	c-0.75,0-2.23,0.05-3.28,0.14l-0.42,0.04c-2.07,0.26-6.1,1.15-9.59,2.97l-0.69,0.38c-3.56,2.03-6.46,4.91-7.67,6.24l-0.42,0.47
	c-0.69,0.81-2.13,2.57-3.02,4.8l-0.17,0.45c-0.91,2.6-1.35,5.73-1.34,7.45l0.02,0.68c0.13,3.39,1.06,6.5,1.49,7.58l0.16,0.39
	c0.82,1.94,1.93,3.82,2.61,4.6l0.41,0.45c2.2,2.29,6.41,5.13,11.77,6.29l1.29,0.28c1.45,0.3,3.35,0.61,5.41,0.58l0.81-0.02
	c1.91-0.07,3.94-0.31,5.87-0.81l0.5-0.14c1.26-0.37,3.24-1.08,5.21-2.17l0.39-0.22c1.92-1.12,3.8-2.59,4.06-2.76l0.28-0.2
	c0.64-0.51,1.28-1.29,1.87-2.23c0.68-1.07,1.32-2.36,1.88-3.69c1.11-2.67,1.91-5.59,2.01-7.46l0.02-0.44
	c0.06-1.92-0.18-4.25-0.46-6.15l-0.13-0.85c-0.84-5.08-3.4-8.63-5.51-10.8l-0.42-0.41C105.91,66.3,99.81,65.11,97.39,65.11z
	 M175.85,65.06c-2.34,0-8.14,1.11-12.5,5.05l-0.42,0.39c-2.12,2.05-4.86,5.57-5.84,10.71l-0.09,0.5c-0.36,2.16-0.7,5.15-0.57,7.44
	l0.03,0.36c0.18,1.88,0.95,4.6,1.99,7.1c0.56,1.34,1.2,2.62,1.88,3.69c0.68,1.07,1.4,1.94,2.14,2.43l0.52,0.38
	c0.81,0.6,2.39,1.75,3.92,2.6l0.42,0.23c2.11,1.11,4.17,1.79,5.29,2.08l0.41,0.1c2.08,0.49,4.25,0.7,6.27,0.72h0.51
	c2.54-0.03,4.79-0.56,6.18-0.86l0.53-0.12c5.46-1.32,9.66-4.34,11.65-6.62l0.14-0.17c0.73-0.92,1.85-2.88,2.62-4.82l0.2-0.54
	c0.5-1.48,1.29-4.53,1.31-7.72v-0.34c-0.04-1.65-0.42-4.29-1.17-6.62l-0.17-0.49c-0.75-2.15-2.07-3.9-2.88-4.88l-0.31-0.37
	c-0.79-0.93-3.82-4.18-7.71-6.49l-0.38-0.22c-3.42-1.94-7.53-2.94-9.85-3.29l-0.44-0.06C178.52,65.12,176.71,65.06,175.85,65.06z
	 M137.12,82.73c-0.38,0.01-1.08-0.01-1.82,0.08l-0.32,0.04c-0.85,0.13-1.69,0.38-2.24,0.59l-0.21,0.08
	c-0.54,0.22-1.02,0.53-1.39,0.8c-0.28,0.2-0.5,0.39-0.63,0.52l-0.11,0.11c-0.06,0.07-0.13,0.13-0.21,0.21
	c-0.06,0.06-0.12,0.13-0.18,0.21l-0.05,0.09c-0.04,0.07-0.08,0.17-0.13,0.28l-0.11,0.27c-0.06,0.19-0.07,0.35-0.04,0.47
	c0.01,0.06,0.03,0.11,0.04,0.14c0.01,0.02,0.01,0.03,0.02,0.04c0,0.01,0.01,0.01,0.01,0.02c0,0,0,0,0,0.01l0,0l0,0l0.07,0.11h0.13
	H130c0.02,0,0.05,0,0.09,0c0.07,0,0.17,0,0.27-0.01l0.33-0.01c0.43-0.01,1.15-0.01,1.85-0.01c0.07,0,0.14,0,0.21,0h0.01
	c0.22,0.07,0.49,0.17,0.73,0.31l0.16,0.1c0.15,0.11,0.29,0.24,0.42,0.38c0.09,0.09,0.17,0.18,0.24,0.27
	c0.08,0.09,0.15,0.17,0.23,0.25l0.21,0.24c0.12,0.15,0.27,0.35,0.41,0.56l0.25,0.43c0.08,0.14,0.15,0.28,0.21,0.4
	c0.06,0.12,0.11,0.22,0.14,0.29c0,0,0,0.01,0.01,0.01v5.5c-0.11,0.11-0.2,0.23-0.27,0.38l-0.01,0.03c-0.02,0.03-0.04,0.08-0.08,0.15
	c-0.08,0.14-0.2,0.33-0.37,0.55c-0.3,0.39-0.72,0.81-1.26,1.11l-0.24,0.12c-0.2,0.09-0.74,0.22-1.49,0.25
	c-0.63,0.02-1.28-0.04-1.82-0.19L130,97.84c-0.5-0.17-1.34-0.6-1.79-1.22l-0.08-0.13c-0.2-0.32-0.31-0.79-0.35-1.28
	c-0.02-0.23-0.02-0.43-0.02-0.57c0-0.07,0-0.12,0.01-0.16v-0.03c0.07-0.69-0.44-1.3-1.13-1.36c-0.69-0.07-1.3,0.44-1.36,1.12
	l1.3,0.12h-0.06c-1.16-0.11-1.24-0.12-1.24-0.12l0,0v0.01c0,0.01,0,0.01,0,0.02c0,0.02,0,0.05-0.01,0.08c0,0.06-0.01,0.15-0.01,0.25
	c0,0.21,0,0.5,0.03,0.84c0.05,0.64,0.21,1.57,0.71,2.38l0.17,0.26c0.91,1.26,2.36,1.91,3.01,2.13l0.36,0.11
	c0.86,0.24,1.78,0.31,2.58,0.28c0.9-0.03,1.82-0.18,2.46-0.48l0.21-0.1c0.95-0.49,1.64-1.17,2.11-1.74
	c0.43,0.59,1.03,1.22,1.86,1.62l0.23,0.1c0.57,0.23,1.32,0.4,2.1,0.48c0.91,0.09,1.96,0.06,2.99-0.21l0.34-0.1
	c0.77-0.25,1.46-0.65,2-1.04c0.6-0.43,1.13-0.94,1.41-1.37l0.1-0.16c0.49-0.82,0.66-1.73,0.72-2.38c0.03-0.36,0.04-0.67,0.03-0.89
	c0-0.11-0.01-0.21-0.01-0.27c0-0.03,0-0.06,0-0.08c0-0.01,0-0.02,0-0.03v-0.01l0,0l0,0l-1.19,0.12l1.19-0.12
	c-0.07-0.69-0.68-1.19-1.37-1.12s-1.19,0.68-1.12,1.37l0,0c0,0.01,0,0.02,0,0.04c0,0.04,0.01,0.09,0.01,0.17c0,0.15,0,0.36-0.02,0.6
	c-0.04,0.45-0.15,0.9-0.34,1.26l-0.09,0.15c-0.05,0.08-0.32,0.38-0.79,0.72c-0.39,0.28-0.85,0.54-1.32,0.69l-0.2,0.06
	c-0.66,0.18-1.41,0.21-2.1,0.14c-0.53-0.05-0.96-0.15-1.26-0.25l-0.24-0.1c-0.46-0.22-0.85-0.68-1.15-1.21
	c-0.14-0.25-0.24-0.48-0.31-0.65c-0.03-0.08-0.06-0.15-0.07-0.19c-0.01-0.02-0.01-0.04-0.01-0.04l0,0l0,0
	c-0.01-0.02-0.01-0.04-0.02-0.06v-5.34l0.01-0.03l0,0l0,0l0,0c0,0,0.01-0.01,0.01-0.02c0.01-0.02,0.02-0.04,0.03-0.08
	c0.03-0.07,0.07-0.16,0.13-0.28c0.11-0.23,0.26-0.53,0.44-0.81l0.18-0.26c0.18-0.25,0.38-0.46,0.55-0.66l0.18-0.21
	c0.2-0.23,0.46-0.48,0.76-0.68l0.17-0.1c0.17-0.1,0.34-0.18,0.48-0.24h0.01c0.28,0,0.62,0,0.97,0l0.79,0.01c0.26,0,0.5,0,0.68-0.01
	l0.33-0.01l0.08-0.02c0.03-0.01,0.06-0.03,0.08-0.05c0.05-0.04,0.07-0.1,0.08-0.13c0.02-0.06,0.01-0.12,0.01-0.14
	c0-0.07-0.01-0.09,0-0.11l0.01-0.09c0-0.16-0.04-0.33-0.1-0.5l-0.09-0.19c-0.17-0.33-0.48-0.67-0.74-0.93l-0.24-0.22
	c-0.21-0.18-0.78-0.6-1.48-0.91l-0.31-0.13c-0.6-0.23-1.26-0.34-1.7-0.4l-0.36-0.05c-0.3-0.04-0.99-0.16-1.76-0.17L137.12,82.73
	L137.12,82.73z M55.54,13.55c-0.77-0.29-2.6-1.04-4.02-0.8c-0.33,0.06-1.09,0.29-1.81,0.73c-0.57,0.35-1.12,0.84-1.39,1.47
	c-0.1,0.23-0.5,0.85-0.71,1.6c-0.16,0.57-0.55,2.09-0.84,3.79c-0.21,1.24-0.52,4.04-0.84,6.74c-0.43,3.59-0.88,7.44-1.17,11.32
	c-0.02,0.24-0.33,3.18-0.57,7.31c-0.12,2.08-0.14,4.47-0.27,6.95c-0.1,2.1-0.32,4.27-0.41,6.37c-0.12,2.68-0.33,5.25-0.4,7.45
	c-0.05,1.56-0.07,2.93-0.08,4.01c-0.01,1.39,0,2.31-0.02,2.54c-0.12,1.6,0.36,2.26,1.33,1.02c3.58-4.56,12.52-15.74,17.59-20.35
	c5.13-4.67,15.58-10.89,18.44-12.59c0.49-0.29,0.64-1.08,0.1-1.53c-0.29-0.24-5.23-6.8-9.98-12.35c-3.17-3.71-6.44-6.84-7.47-7.81
	C59.66,16.22,56.44,13.89,55.54,13.55z M219.12,10.07c-1.43-0.2-3.23,0.6-4,0.92c-0.88,0.37-4.04,2.79-7.3,6.08
	c-0.99,1-4.17,4.23-7.23,8.03c-4.58,5.69-9.32,12.4-9.61,12.65c-0.52,0.47-0.35,1.26,0.14,1.53c2.91,1.62,13.54,7.52,18.81,12.04
	c5.21,4.46,14.47,15.37,18.19,19.82c1.01,1.21,1.46,0.53,1.3-1.06c-0.02-0.23-0.04-1.15-0.1-2.54c-0.04-1.08-0.1-2.45-0.2-4
	c-0.14-2.19-0.42-4.76-0.62-7.43c-0.16-2.1-0.44-4.26-0.6-6.36c-0.2-2.48-0.29-4.87-0.47-6.94c-0.37-4.12-0.77-7.05-0.79-7.29
	c-0.4-3.86-0.97-7.7-1.5-11.28c-0.4-2.69-0.79-5.48-1.04-6.71c-0.34-1.69-0.78-3.2-0.95-3.76c-0.23-0.74-0.66-1.35-0.76-1.57
	c-0.29-0.63-0.85-1.1-1.43-1.43C220.22,10.33,219.45,10.12,219.12,10.07z"/>
<path class="st0" d="M97.52,73.96c1.14-0.02,2.66,0.05,4.31,0.87l0.27,0.14c0.63,0.35,1.29,0.84,1.86,1.32
	c0.65,0.55,1.21,1.08,1.47,1.37l0.26,0.32c0.64,0.83,1.49,2.23,1.84,2.89l0.12,0.23c1.19,2.38,1.03,4.77,1.03,6.6
	c0,0.94,0.15,2.98-0.65,5.16l-0.17,0.44c-0.52,1.24-1.34,2.49-2.1,3.51c-0.57,0.76-1.12,1.4-1.5,1.81l-0.33,0.33
	c-1.09,1.01-2.43,1.75-3.67,2.22c-1.23,0.48-2.39,0.71-3.1,0.71c-0.03,0-0.73-0.04-1.67-0.2c-0.82-0.14-1.85-0.37-2.77-0.74
	l-0.39-0.17c-0.78-0.36-2.44-1.33-3.65-2.84l-0.24-0.31c-0.95-1.32-1.55-2.99-1.89-4.08l-0.26-0.86c-0.77-2.56-0.35-5.51-0.35-6.1
	c0-1.3,0.24-4.12,1.66-6.62l0.25-0.41c0.6-0.95,1.39-1.83,2.13-2.53c0.84-0.81,1.65-1.41,2.09-1.64l0.42-0.21
	c1.07-0.51,2.76-1.14,4.55-1.19L97.52,73.96z M101.65,79.34c-0.23,0.02-0.48,0.13-0.72,0.29c-0.25,0.16-0.5,0.39-0.74,0.66
	c-0.42,0.47-0.8,1.09-0.97,1.79l-0.06,0.3c-0.07,0.44-0.04,1.11,0.08,1.77c0.13,0.67,0.36,1.37,0.75,1.87l0.14,0.17
	c0.35,0.37,0.78,0.57,1.15,0.68c0.43,0.12,0.82,0.13,1,0.12l0.12-0.02c0.28-0.07,0.63-0.25,0.96-0.5c0.38-0.29,0.77-0.68,1.02-1.14
	l0.1-0.19c0.38-0.82,0.4-1.73,0.38-2.22l-0.01-0.19c-0.08-0.96-0.5-1.83-1.08-2.45c-0.54-0.58-1.24-0.96-1.97-0.95L101.65,79.34z"/>
<path class="st0" d="M172.46,74.7c1.75-0.76,3.32-0.72,4.43-0.69l0.38,0.02c1.9,0.13,3.65,0.88,4.59,1.38l0.18,0.1
	c0.46,0.28,1.17,0.83,1.91,1.54c0.85,0.81,1.75,1.84,2.38,2.94l0.25,0.47c1.2,2.37,1.41,4.93,1.41,6.15c0,0.55,0.37,3.18-0.22,5.62
	l-0.13,0.48c-0.22,0.75-0.8,2.89-1.91,4.61l-0.23,0.34c-1.07,1.48-2.61,2.48-3.53,2.97l-0.36,0.18c-1.01,0.47-2.21,0.75-3.16,0.9
	c-0.94,0.16-1.64,0.2-1.67,0.2c-0.72,0-1.87-0.23-3.1-0.71c-1.16-0.45-2.41-1.12-3.46-2.04l-0.21-0.19
	c-0.35-0.33-1.07-1.12-1.83-2.14c-0.67-0.89-1.37-1.96-1.89-3.04l-0.21-0.46c-0.99-2.35-0.83-4.61-0.83-5.6
	c0-1.89-0.16-4.37,1.15-6.83l0.18-0.32c0.48-0.84,1.35-2.24,1.93-2.88l0.25-0.26c0.3-0.3,0.73-0.7,1.22-1.11
	c0.65-0.54,1.43-1.11,2.13-1.46L172.46,74.7z M172.27,79.11c-0.78-0.07-1.54,0.32-2.12,0.94c-0.54,0.58-0.94,1.38-1.06,2.27
	l-0.02,0.18c-0.04,0.43-0.09,1.62,0.46,2.6l0.1,0.17c0.25,0.38,0.59,0.72,0.92,0.97c0.37,0.28,0.78,0.49,1.08,0.52l0.17,0.01
	c0.21,0,0.5-0.03,0.83-0.12c0.43-0.12,0.93-0.37,1.3-0.84l0.14-0.2c0.31-0.48,0.5-1.09,0.61-1.68c0.11-0.58,0.14-1.17,0.1-1.6
	l-0.02-0.18c-0.12-0.82-0.55-1.56-1.03-2.09c-0.24-0.27-0.5-0.49-0.74-0.66c-0.21-0.14-0.43-0.24-0.64-0.28L172.27,79.11z"/>
</svg>
